M48
INCH,TZ
T1C0.0157
T2C0.0236
T3C0.0394
%
G90
G05
T1
X35788Y-38303
X35834Y-37213
X36144Y-38613
X36198Y-39968
X36264Y-37209
X37038Y-36961
X37045Y-40256
X37434Y-40517
X37990Y-36041
X38254Y-41363
X38705Y-37828
X42316Y-40414
X42318Y-37645
T2
X40732Y-37300
T3
X32600Y-38600
X32600Y-39600
X32600Y-40600
X33600Y-38600
X33600Y-39600
X33600Y-40600
X42250Y-33700
X43250Y-33700
X44250Y-33700
X45250Y-33700
X36100Y-42850
X37100Y-42850
X38100Y-42850
X39100Y-42850
X40100Y-42850
X41100Y-42850
X42100Y-42850
X43100Y-42850
X44100Y-42850
X36750Y-33700
X37750Y-33700
X38750Y-33700
X39750Y-33700
X32600Y-36000
X32600Y-37000
T0
M30
