G04 #@! TF.GenerationSoftware,KiCad,Pcbnew,(5.1.2)-1*
G04 #@! TF.CreationDate,2019-05-20T21:13:43-04:00*
G04 #@! TF.ProjectId,DuinoClone,4475696e-6f43-46c6-9f6e-652e6b696361,1*
G04 #@! TF.SameCoordinates,Original*
G04 #@! TF.FileFunction,Soldermask,Bot*
G04 #@! TF.FilePolarity,Negative*
%FSLAX46Y46*%
G04 Gerber Fmt 4.6, Leading zero omitted, Abs format (unit mm)*
G04 Created by KiCad (PCBNEW (5.1.2)-1) date 2019-05-20 21:13:43*
%MOMM*%
%LPD*%
G04 APERTURE LIST*
%ADD10C,0.100000*%
G04 APERTURE END LIST*
D10*
G36*
X104504443Y-107944519D02*
G01*
X104570627Y-107951037D01*
X104740466Y-108002557D01*
X104896991Y-108086222D01*
X104932729Y-108115552D01*
X105034186Y-108198814D01*
X105117448Y-108300271D01*
X105146778Y-108336009D01*
X105230443Y-108492534D01*
X105281963Y-108662373D01*
X105299359Y-108839000D01*
X105281963Y-109015627D01*
X105230443Y-109185466D01*
X105146778Y-109341991D01*
X105117448Y-109377729D01*
X105034186Y-109479186D01*
X104932729Y-109562448D01*
X104896991Y-109591778D01*
X104740466Y-109675443D01*
X104570627Y-109726963D01*
X104504442Y-109733482D01*
X104438260Y-109740000D01*
X104349740Y-109740000D01*
X104283558Y-109733482D01*
X104217373Y-109726963D01*
X104047534Y-109675443D01*
X103891009Y-109591778D01*
X103855271Y-109562448D01*
X103753814Y-109479186D01*
X103670552Y-109377729D01*
X103641222Y-109341991D01*
X103557557Y-109185466D01*
X103506037Y-109015627D01*
X103488641Y-108839000D01*
X103506037Y-108662373D01*
X103557557Y-108492534D01*
X103641222Y-108336009D01*
X103670552Y-108300271D01*
X103753814Y-108198814D01*
X103855271Y-108115552D01*
X103891009Y-108086222D01*
X104047534Y-108002557D01*
X104217373Y-107951037D01*
X104283557Y-107944519D01*
X104349740Y-107938000D01*
X104438260Y-107938000D01*
X104504443Y-107944519D01*
X104504443Y-107944519D01*
G37*
G36*
X101964443Y-107944519D02*
G01*
X102030627Y-107951037D01*
X102200466Y-108002557D01*
X102356991Y-108086222D01*
X102392729Y-108115552D01*
X102494186Y-108198814D01*
X102577448Y-108300271D01*
X102606778Y-108336009D01*
X102690443Y-108492534D01*
X102741963Y-108662373D01*
X102759359Y-108839000D01*
X102741963Y-109015627D01*
X102690443Y-109185466D01*
X102606778Y-109341991D01*
X102577448Y-109377729D01*
X102494186Y-109479186D01*
X102392729Y-109562448D01*
X102356991Y-109591778D01*
X102200466Y-109675443D01*
X102030627Y-109726963D01*
X101964442Y-109733482D01*
X101898260Y-109740000D01*
X101809740Y-109740000D01*
X101743558Y-109733482D01*
X101677373Y-109726963D01*
X101507534Y-109675443D01*
X101351009Y-109591778D01*
X101315271Y-109562448D01*
X101213814Y-109479186D01*
X101130552Y-109377729D01*
X101101222Y-109341991D01*
X101017557Y-109185466D01*
X100966037Y-109015627D01*
X100948641Y-108839000D01*
X100966037Y-108662373D01*
X101017557Y-108492534D01*
X101101222Y-108336009D01*
X101130552Y-108300271D01*
X101213814Y-108198814D01*
X101315271Y-108115552D01*
X101351009Y-108086222D01*
X101507534Y-108002557D01*
X101677373Y-107951037D01*
X101743557Y-107944519D01*
X101809740Y-107938000D01*
X101898260Y-107938000D01*
X101964443Y-107944519D01*
X101964443Y-107944519D01*
G37*
G36*
X99424443Y-107944519D02*
G01*
X99490627Y-107951037D01*
X99660466Y-108002557D01*
X99816991Y-108086222D01*
X99852729Y-108115552D01*
X99954186Y-108198814D01*
X100037448Y-108300271D01*
X100066778Y-108336009D01*
X100150443Y-108492534D01*
X100201963Y-108662373D01*
X100219359Y-108839000D01*
X100201963Y-109015627D01*
X100150443Y-109185466D01*
X100066778Y-109341991D01*
X100037448Y-109377729D01*
X99954186Y-109479186D01*
X99852729Y-109562448D01*
X99816991Y-109591778D01*
X99660466Y-109675443D01*
X99490627Y-109726963D01*
X99424442Y-109733482D01*
X99358260Y-109740000D01*
X99269740Y-109740000D01*
X99203558Y-109733482D01*
X99137373Y-109726963D01*
X98967534Y-109675443D01*
X98811009Y-109591778D01*
X98775271Y-109562448D01*
X98673814Y-109479186D01*
X98590552Y-109377729D01*
X98561222Y-109341991D01*
X98477557Y-109185466D01*
X98426037Y-109015627D01*
X98408641Y-108839000D01*
X98426037Y-108662373D01*
X98477557Y-108492534D01*
X98561222Y-108336009D01*
X98590552Y-108300271D01*
X98673814Y-108198814D01*
X98775271Y-108115552D01*
X98811009Y-108086222D01*
X98967534Y-108002557D01*
X99137373Y-107951037D01*
X99203557Y-107944519D01*
X99269740Y-107938000D01*
X99358260Y-107938000D01*
X99424443Y-107944519D01*
X99424443Y-107944519D01*
G37*
G36*
X96884443Y-107944519D02*
G01*
X96950627Y-107951037D01*
X97120466Y-108002557D01*
X97276991Y-108086222D01*
X97312729Y-108115552D01*
X97414186Y-108198814D01*
X97497448Y-108300271D01*
X97526778Y-108336009D01*
X97610443Y-108492534D01*
X97661963Y-108662373D01*
X97679359Y-108839000D01*
X97661963Y-109015627D01*
X97610443Y-109185466D01*
X97526778Y-109341991D01*
X97497448Y-109377729D01*
X97414186Y-109479186D01*
X97312729Y-109562448D01*
X97276991Y-109591778D01*
X97120466Y-109675443D01*
X96950627Y-109726963D01*
X96884442Y-109733482D01*
X96818260Y-109740000D01*
X96729740Y-109740000D01*
X96663558Y-109733482D01*
X96597373Y-109726963D01*
X96427534Y-109675443D01*
X96271009Y-109591778D01*
X96235271Y-109562448D01*
X96133814Y-109479186D01*
X96050552Y-109377729D01*
X96021222Y-109341991D01*
X95937557Y-109185466D01*
X95886037Y-109015627D01*
X95868641Y-108839000D01*
X95886037Y-108662373D01*
X95937557Y-108492534D01*
X96021222Y-108336009D01*
X96050552Y-108300271D01*
X96133814Y-108198814D01*
X96235271Y-108115552D01*
X96271009Y-108086222D01*
X96427534Y-108002557D01*
X96597373Y-107951037D01*
X96663557Y-107944519D01*
X96729740Y-107938000D01*
X96818260Y-107938000D01*
X96884443Y-107944519D01*
X96884443Y-107944519D01*
G37*
G36*
X94344443Y-107944519D02*
G01*
X94410627Y-107951037D01*
X94580466Y-108002557D01*
X94736991Y-108086222D01*
X94772729Y-108115552D01*
X94874186Y-108198814D01*
X94957448Y-108300271D01*
X94986778Y-108336009D01*
X95070443Y-108492534D01*
X95121963Y-108662373D01*
X95139359Y-108839000D01*
X95121963Y-109015627D01*
X95070443Y-109185466D01*
X94986778Y-109341991D01*
X94957448Y-109377729D01*
X94874186Y-109479186D01*
X94772729Y-109562448D01*
X94736991Y-109591778D01*
X94580466Y-109675443D01*
X94410627Y-109726963D01*
X94344442Y-109733482D01*
X94278260Y-109740000D01*
X94189740Y-109740000D01*
X94123558Y-109733482D01*
X94057373Y-109726963D01*
X93887534Y-109675443D01*
X93731009Y-109591778D01*
X93695271Y-109562448D01*
X93593814Y-109479186D01*
X93510552Y-109377729D01*
X93481222Y-109341991D01*
X93397557Y-109185466D01*
X93346037Y-109015627D01*
X93328641Y-108839000D01*
X93346037Y-108662373D01*
X93397557Y-108492534D01*
X93481222Y-108336009D01*
X93510552Y-108300271D01*
X93593814Y-108198814D01*
X93695271Y-108115552D01*
X93731009Y-108086222D01*
X93887534Y-108002557D01*
X94057373Y-107951037D01*
X94123557Y-107944519D01*
X94189740Y-107938000D01*
X94278260Y-107938000D01*
X94344443Y-107944519D01*
X94344443Y-107944519D01*
G37*
G36*
X92595000Y-109740000D02*
G01*
X90793000Y-109740000D01*
X90793000Y-107938000D01*
X92595000Y-107938000D01*
X92595000Y-109740000D01*
X92595000Y-109740000D01*
G37*
G36*
X112124443Y-107944519D02*
G01*
X112190627Y-107951037D01*
X112360466Y-108002557D01*
X112516991Y-108086222D01*
X112552729Y-108115552D01*
X112654186Y-108198814D01*
X112737448Y-108300271D01*
X112766778Y-108336009D01*
X112850443Y-108492534D01*
X112901963Y-108662373D01*
X112919359Y-108839000D01*
X112901963Y-109015627D01*
X112850443Y-109185466D01*
X112766778Y-109341991D01*
X112737448Y-109377729D01*
X112654186Y-109479186D01*
X112552729Y-109562448D01*
X112516991Y-109591778D01*
X112360466Y-109675443D01*
X112190627Y-109726963D01*
X112124442Y-109733482D01*
X112058260Y-109740000D01*
X111969740Y-109740000D01*
X111903558Y-109733482D01*
X111837373Y-109726963D01*
X111667534Y-109675443D01*
X111511009Y-109591778D01*
X111475271Y-109562448D01*
X111373814Y-109479186D01*
X111290552Y-109377729D01*
X111261222Y-109341991D01*
X111177557Y-109185466D01*
X111126037Y-109015627D01*
X111108641Y-108839000D01*
X111126037Y-108662373D01*
X111177557Y-108492534D01*
X111261222Y-108336009D01*
X111290552Y-108300271D01*
X111373814Y-108198814D01*
X111475271Y-108115552D01*
X111511009Y-108086222D01*
X111667534Y-108002557D01*
X111837373Y-107951037D01*
X111903557Y-107944519D01*
X111969740Y-107938000D01*
X112058260Y-107938000D01*
X112124443Y-107944519D01*
X112124443Y-107944519D01*
G37*
G36*
X107044443Y-107944519D02*
G01*
X107110627Y-107951037D01*
X107280466Y-108002557D01*
X107436991Y-108086222D01*
X107472729Y-108115552D01*
X107574186Y-108198814D01*
X107657448Y-108300271D01*
X107686778Y-108336009D01*
X107770443Y-108492534D01*
X107821963Y-108662373D01*
X107839359Y-108839000D01*
X107821963Y-109015627D01*
X107770443Y-109185466D01*
X107686778Y-109341991D01*
X107657448Y-109377729D01*
X107574186Y-109479186D01*
X107472729Y-109562448D01*
X107436991Y-109591778D01*
X107280466Y-109675443D01*
X107110627Y-109726963D01*
X107044442Y-109733482D01*
X106978260Y-109740000D01*
X106889740Y-109740000D01*
X106823558Y-109733482D01*
X106757373Y-109726963D01*
X106587534Y-109675443D01*
X106431009Y-109591778D01*
X106395271Y-109562448D01*
X106293814Y-109479186D01*
X106210552Y-109377729D01*
X106181222Y-109341991D01*
X106097557Y-109185466D01*
X106046037Y-109015627D01*
X106028641Y-108839000D01*
X106046037Y-108662373D01*
X106097557Y-108492534D01*
X106181222Y-108336009D01*
X106210552Y-108300271D01*
X106293814Y-108198814D01*
X106395271Y-108115552D01*
X106431009Y-108086222D01*
X106587534Y-108002557D01*
X106757373Y-107951037D01*
X106823557Y-107944519D01*
X106889740Y-107938000D01*
X106978260Y-107938000D01*
X107044443Y-107944519D01*
X107044443Y-107944519D01*
G37*
G36*
X109584443Y-107944519D02*
G01*
X109650627Y-107951037D01*
X109820466Y-108002557D01*
X109976991Y-108086222D01*
X110012729Y-108115552D01*
X110114186Y-108198814D01*
X110197448Y-108300271D01*
X110226778Y-108336009D01*
X110310443Y-108492534D01*
X110361963Y-108662373D01*
X110379359Y-108839000D01*
X110361963Y-109015627D01*
X110310443Y-109185466D01*
X110226778Y-109341991D01*
X110197448Y-109377729D01*
X110114186Y-109479186D01*
X110012729Y-109562448D01*
X109976991Y-109591778D01*
X109820466Y-109675443D01*
X109650627Y-109726963D01*
X109584442Y-109733482D01*
X109518260Y-109740000D01*
X109429740Y-109740000D01*
X109363558Y-109733482D01*
X109297373Y-109726963D01*
X109127534Y-109675443D01*
X108971009Y-109591778D01*
X108935271Y-109562448D01*
X108833814Y-109479186D01*
X108750552Y-109377729D01*
X108721222Y-109341991D01*
X108637557Y-109185466D01*
X108586037Y-109015627D01*
X108568641Y-108839000D01*
X108586037Y-108662373D01*
X108637557Y-108492534D01*
X108721222Y-108336009D01*
X108750552Y-108300271D01*
X108833814Y-108198814D01*
X108935271Y-108115552D01*
X108971009Y-108086222D01*
X109127534Y-108002557D01*
X109297373Y-107951037D01*
X109363557Y-107944519D01*
X109429740Y-107938000D01*
X109518260Y-107938000D01*
X109584443Y-107944519D01*
X109584443Y-107944519D01*
G37*
G36*
X85454443Y-102229519D02*
G01*
X85520627Y-102236037D01*
X85690466Y-102287557D01*
X85846991Y-102371222D01*
X85882729Y-102400552D01*
X85984186Y-102483814D01*
X86067448Y-102585271D01*
X86096778Y-102621009D01*
X86180443Y-102777534D01*
X86231963Y-102947373D01*
X86249359Y-103124000D01*
X86231963Y-103300627D01*
X86180443Y-103470466D01*
X86096778Y-103626991D01*
X86067448Y-103662729D01*
X85984186Y-103764186D01*
X85882729Y-103847448D01*
X85846991Y-103876778D01*
X85690466Y-103960443D01*
X85520627Y-104011963D01*
X85454443Y-104018481D01*
X85388260Y-104025000D01*
X85299740Y-104025000D01*
X85233557Y-104018481D01*
X85167373Y-104011963D01*
X84997534Y-103960443D01*
X84841009Y-103876778D01*
X84805271Y-103847448D01*
X84703814Y-103764186D01*
X84620552Y-103662729D01*
X84591222Y-103626991D01*
X84507557Y-103470466D01*
X84456037Y-103300627D01*
X84438641Y-103124000D01*
X84456037Y-102947373D01*
X84507557Y-102777534D01*
X84591222Y-102621009D01*
X84620552Y-102585271D01*
X84703814Y-102483814D01*
X84805271Y-102400552D01*
X84841009Y-102371222D01*
X84997534Y-102287557D01*
X85167373Y-102236037D01*
X85233557Y-102229519D01*
X85299740Y-102223000D01*
X85388260Y-102223000D01*
X85454443Y-102229519D01*
X85454443Y-102229519D01*
G37*
G36*
X82914443Y-102229519D02*
G01*
X82980627Y-102236037D01*
X83150466Y-102287557D01*
X83306991Y-102371222D01*
X83342729Y-102400552D01*
X83444186Y-102483814D01*
X83527448Y-102585271D01*
X83556778Y-102621009D01*
X83640443Y-102777534D01*
X83691963Y-102947373D01*
X83709359Y-103124000D01*
X83691963Y-103300627D01*
X83640443Y-103470466D01*
X83556778Y-103626991D01*
X83527448Y-103662729D01*
X83444186Y-103764186D01*
X83342729Y-103847448D01*
X83306991Y-103876778D01*
X83150466Y-103960443D01*
X82980627Y-104011963D01*
X82914443Y-104018481D01*
X82848260Y-104025000D01*
X82759740Y-104025000D01*
X82693557Y-104018481D01*
X82627373Y-104011963D01*
X82457534Y-103960443D01*
X82301009Y-103876778D01*
X82265271Y-103847448D01*
X82163814Y-103764186D01*
X82080552Y-103662729D01*
X82051222Y-103626991D01*
X81967557Y-103470466D01*
X81916037Y-103300627D01*
X81898641Y-103124000D01*
X81916037Y-102947373D01*
X81967557Y-102777534D01*
X82051222Y-102621009D01*
X82080552Y-102585271D01*
X82163814Y-102483814D01*
X82265271Y-102400552D01*
X82301009Y-102371222D01*
X82457534Y-102287557D01*
X82627373Y-102236037D01*
X82693557Y-102229519D01*
X82759740Y-102223000D01*
X82848260Y-102223000D01*
X82914443Y-102229519D01*
X82914443Y-102229519D01*
G37*
G36*
X85454442Y-99689518D02*
G01*
X85520627Y-99696037D01*
X85690466Y-99747557D01*
X85846991Y-99831222D01*
X85882729Y-99860552D01*
X85984186Y-99943814D01*
X86067448Y-100045271D01*
X86096778Y-100081009D01*
X86180443Y-100237534D01*
X86231963Y-100407373D01*
X86249359Y-100584000D01*
X86231963Y-100760627D01*
X86180443Y-100930466D01*
X86096778Y-101086991D01*
X86067448Y-101122729D01*
X85984186Y-101224186D01*
X85882729Y-101307448D01*
X85846991Y-101336778D01*
X85690466Y-101420443D01*
X85520627Y-101471963D01*
X85454443Y-101478481D01*
X85388260Y-101485000D01*
X85299740Y-101485000D01*
X85233557Y-101478481D01*
X85167373Y-101471963D01*
X84997534Y-101420443D01*
X84841009Y-101336778D01*
X84805271Y-101307448D01*
X84703814Y-101224186D01*
X84620552Y-101122729D01*
X84591222Y-101086991D01*
X84507557Y-100930466D01*
X84456037Y-100760627D01*
X84438641Y-100584000D01*
X84456037Y-100407373D01*
X84507557Y-100237534D01*
X84591222Y-100081009D01*
X84620552Y-100045271D01*
X84703814Y-99943814D01*
X84805271Y-99860552D01*
X84841009Y-99831222D01*
X84997534Y-99747557D01*
X85167373Y-99696037D01*
X85233558Y-99689518D01*
X85299740Y-99683000D01*
X85388260Y-99683000D01*
X85454442Y-99689518D01*
X85454442Y-99689518D01*
G37*
G36*
X82914442Y-99689518D02*
G01*
X82980627Y-99696037D01*
X83150466Y-99747557D01*
X83306991Y-99831222D01*
X83342729Y-99860552D01*
X83444186Y-99943814D01*
X83527448Y-100045271D01*
X83556778Y-100081009D01*
X83640443Y-100237534D01*
X83691963Y-100407373D01*
X83709359Y-100584000D01*
X83691963Y-100760627D01*
X83640443Y-100930466D01*
X83556778Y-101086991D01*
X83527448Y-101122729D01*
X83444186Y-101224186D01*
X83342729Y-101307448D01*
X83306991Y-101336778D01*
X83150466Y-101420443D01*
X82980627Y-101471963D01*
X82914443Y-101478481D01*
X82848260Y-101485000D01*
X82759740Y-101485000D01*
X82693557Y-101478481D01*
X82627373Y-101471963D01*
X82457534Y-101420443D01*
X82301009Y-101336778D01*
X82265271Y-101307448D01*
X82163814Y-101224186D01*
X82080552Y-101122729D01*
X82051222Y-101086991D01*
X81967557Y-100930466D01*
X81916037Y-100760627D01*
X81898641Y-100584000D01*
X81916037Y-100407373D01*
X81967557Y-100237534D01*
X82051222Y-100081009D01*
X82080552Y-100045271D01*
X82163814Y-99943814D01*
X82265271Y-99860552D01*
X82301009Y-99831222D01*
X82457534Y-99747557D01*
X82627373Y-99696037D01*
X82693558Y-99689518D01*
X82759740Y-99683000D01*
X82848260Y-99683000D01*
X82914442Y-99689518D01*
X82914442Y-99689518D01*
G37*
G36*
X83705000Y-98945000D02*
G01*
X81903000Y-98945000D01*
X81903000Y-97143000D01*
X83705000Y-97143000D01*
X83705000Y-98945000D01*
X83705000Y-98945000D01*
G37*
G36*
X85454443Y-97149519D02*
G01*
X85520627Y-97156037D01*
X85690466Y-97207557D01*
X85846991Y-97291222D01*
X85882729Y-97320552D01*
X85984186Y-97403814D01*
X86067448Y-97505271D01*
X86096778Y-97541009D01*
X86180443Y-97697534D01*
X86231963Y-97867373D01*
X86249359Y-98044000D01*
X86231963Y-98220627D01*
X86180443Y-98390466D01*
X86096778Y-98546991D01*
X86067448Y-98582729D01*
X85984186Y-98684186D01*
X85882729Y-98767448D01*
X85846991Y-98796778D01*
X85690466Y-98880443D01*
X85520627Y-98931963D01*
X85454443Y-98938481D01*
X85388260Y-98945000D01*
X85299740Y-98945000D01*
X85233558Y-98938482D01*
X85167373Y-98931963D01*
X84997534Y-98880443D01*
X84841009Y-98796778D01*
X84805271Y-98767448D01*
X84703814Y-98684186D01*
X84620552Y-98582729D01*
X84591222Y-98546991D01*
X84507557Y-98390466D01*
X84456037Y-98220627D01*
X84438641Y-98044000D01*
X84456037Y-97867373D01*
X84507557Y-97697534D01*
X84591222Y-97541009D01*
X84620552Y-97505271D01*
X84703814Y-97403814D01*
X84805271Y-97320552D01*
X84841009Y-97291222D01*
X84997534Y-97207557D01*
X85167373Y-97156037D01*
X85233557Y-97149519D01*
X85299740Y-97143000D01*
X85388260Y-97143000D01*
X85454443Y-97149519D01*
X85454443Y-97149519D01*
G37*
G36*
X82914443Y-93085519D02*
G01*
X82980627Y-93092037D01*
X83150466Y-93143557D01*
X83306991Y-93227222D01*
X83342729Y-93256552D01*
X83444186Y-93339814D01*
X83527448Y-93441271D01*
X83556778Y-93477009D01*
X83640443Y-93633534D01*
X83691963Y-93803373D01*
X83709359Y-93980000D01*
X83691963Y-94156627D01*
X83640443Y-94326466D01*
X83556778Y-94482991D01*
X83527448Y-94518729D01*
X83444186Y-94620186D01*
X83342729Y-94703448D01*
X83306991Y-94732778D01*
X83150466Y-94816443D01*
X82980627Y-94867963D01*
X82914443Y-94874481D01*
X82848260Y-94881000D01*
X82759740Y-94881000D01*
X82693557Y-94874481D01*
X82627373Y-94867963D01*
X82457534Y-94816443D01*
X82301009Y-94732778D01*
X82265271Y-94703448D01*
X82163814Y-94620186D01*
X82080552Y-94518729D01*
X82051222Y-94482991D01*
X81967557Y-94326466D01*
X81916037Y-94156627D01*
X81898641Y-93980000D01*
X81916037Y-93803373D01*
X81967557Y-93633534D01*
X82051222Y-93477009D01*
X82080552Y-93441271D01*
X82163814Y-93339814D01*
X82265271Y-93256552D01*
X82301009Y-93227222D01*
X82457534Y-93143557D01*
X82627373Y-93092037D01*
X82693557Y-93085519D01*
X82759740Y-93079000D01*
X82848260Y-93079000D01*
X82914443Y-93085519D01*
X82914443Y-93085519D01*
G37*
G36*
X83705000Y-92341000D02*
G01*
X81903000Y-92341000D01*
X81903000Y-90539000D01*
X83705000Y-90539000D01*
X83705000Y-92341000D01*
X83705000Y-92341000D01*
G37*
G36*
X108216000Y-86499000D02*
G01*
X106414000Y-86499000D01*
X106414000Y-84697000D01*
X108216000Y-84697000D01*
X108216000Y-86499000D01*
X108216000Y-86499000D01*
G37*
G36*
X109965443Y-84703519D02*
G01*
X110031627Y-84710037D01*
X110201466Y-84761557D01*
X110357991Y-84845222D01*
X110393729Y-84874552D01*
X110495186Y-84957814D01*
X110578448Y-85059271D01*
X110607778Y-85095009D01*
X110691443Y-85251534D01*
X110742963Y-85421373D01*
X110760359Y-85598000D01*
X110742963Y-85774627D01*
X110691443Y-85944466D01*
X110607778Y-86100991D01*
X110578448Y-86136729D01*
X110495186Y-86238186D01*
X110393729Y-86321448D01*
X110357991Y-86350778D01*
X110201466Y-86434443D01*
X110031627Y-86485963D01*
X109965442Y-86492482D01*
X109899260Y-86499000D01*
X109810740Y-86499000D01*
X109744558Y-86492482D01*
X109678373Y-86485963D01*
X109508534Y-86434443D01*
X109352009Y-86350778D01*
X109316271Y-86321448D01*
X109214814Y-86238186D01*
X109131552Y-86136729D01*
X109102222Y-86100991D01*
X109018557Y-85944466D01*
X108967037Y-85774627D01*
X108949641Y-85598000D01*
X108967037Y-85421373D01*
X109018557Y-85251534D01*
X109102222Y-85095009D01*
X109131552Y-85059271D01*
X109214814Y-84957814D01*
X109316271Y-84874552D01*
X109352009Y-84845222D01*
X109508534Y-84761557D01*
X109678373Y-84710037D01*
X109744557Y-84703519D01*
X109810740Y-84697000D01*
X109899260Y-84697000D01*
X109965443Y-84703519D01*
X109965443Y-84703519D01*
G37*
G36*
X112505443Y-84703519D02*
G01*
X112571627Y-84710037D01*
X112741466Y-84761557D01*
X112897991Y-84845222D01*
X112933729Y-84874552D01*
X113035186Y-84957814D01*
X113118448Y-85059271D01*
X113147778Y-85095009D01*
X113231443Y-85251534D01*
X113282963Y-85421373D01*
X113300359Y-85598000D01*
X113282963Y-85774627D01*
X113231443Y-85944466D01*
X113147778Y-86100991D01*
X113118448Y-86136729D01*
X113035186Y-86238186D01*
X112933729Y-86321448D01*
X112897991Y-86350778D01*
X112741466Y-86434443D01*
X112571627Y-86485963D01*
X112505442Y-86492482D01*
X112439260Y-86499000D01*
X112350740Y-86499000D01*
X112284558Y-86492482D01*
X112218373Y-86485963D01*
X112048534Y-86434443D01*
X111892009Y-86350778D01*
X111856271Y-86321448D01*
X111754814Y-86238186D01*
X111671552Y-86136729D01*
X111642222Y-86100991D01*
X111558557Y-85944466D01*
X111507037Y-85774627D01*
X111489641Y-85598000D01*
X111507037Y-85421373D01*
X111558557Y-85251534D01*
X111642222Y-85095009D01*
X111671552Y-85059271D01*
X111754814Y-84957814D01*
X111856271Y-84874552D01*
X111892009Y-84845222D01*
X112048534Y-84761557D01*
X112218373Y-84710037D01*
X112284557Y-84703519D01*
X112350740Y-84697000D01*
X112439260Y-84697000D01*
X112505443Y-84703519D01*
X112505443Y-84703519D01*
G37*
G36*
X115045443Y-84703519D02*
G01*
X115111627Y-84710037D01*
X115281466Y-84761557D01*
X115437991Y-84845222D01*
X115473729Y-84874552D01*
X115575186Y-84957814D01*
X115658448Y-85059271D01*
X115687778Y-85095009D01*
X115771443Y-85251534D01*
X115822963Y-85421373D01*
X115840359Y-85598000D01*
X115822963Y-85774627D01*
X115771443Y-85944466D01*
X115687778Y-86100991D01*
X115658448Y-86136729D01*
X115575186Y-86238186D01*
X115473729Y-86321448D01*
X115437991Y-86350778D01*
X115281466Y-86434443D01*
X115111627Y-86485963D01*
X115045442Y-86492482D01*
X114979260Y-86499000D01*
X114890740Y-86499000D01*
X114824558Y-86492482D01*
X114758373Y-86485963D01*
X114588534Y-86434443D01*
X114432009Y-86350778D01*
X114396271Y-86321448D01*
X114294814Y-86238186D01*
X114211552Y-86136729D01*
X114182222Y-86100991D01*
X114098557Y-85944466D01*
X114047037Y-85774627D01*
X114029641Y-85598000D01*
X114047037Y-85421373D01*
X114098557Y-85251534D01*
X114182222Y-85095009D01*
X114211552Y-85059271D01*
X114294814Y-84957814D01*
X114396271Y-84874552D01*
X114432009Y-84845222D01*
X114588534Y-84761557D01*
X114758373Y-84710037D01*
X114824557Y-84703519D01*
X114890740Y-84697000D01*
X114979260Y-84697000D01*
X115045443Y-84703519D01*
X115045443Y-84703519D01*
G37*
G36*
X94246000Y-86499000D02*
G01*
X92444000Y-86499000D01*
X92444000Y-84697000D01*
X94246000Y-84697000D01*
X94246000Y-86499000D01*
X94246000Y-86499000D01*
G37*
G36*
X101075443Y-84703519D02*
G01*
X101141627Y-84710037D01*
X101311466Y-84761557D01*
X101467991Y-84845222D01*
X101503729Y-84874552D01*
X101605186Y-84957814D01*
X101688448Y-85059271D01*
X101717778Y-85095009D01*
X101801443Y-85251534D01*
X101852963Y-85421373D01*
X101870359Y-85598000D01*
X101852963Y-85774627D01*
X101801443Y-85944466D01*
X101717778Y-86100991D01*
X101688448Y-86136729D01*
X101605186Y-86238186D01*
X101503729Y-86321448D01*
X101467991Y-86350778D01*
X101311466Y-86434443D01*
X101141627Y-86485963D01*
X101075442Y-86492482D01*
X101009260Y-86499000D01*
X100920740Y-86499000D01*
X100854558Y-86492482D01*
X100788373Y-86485963D01*
X100618534Y-86434443D01*
X100462009Y-86350778D01*
X100426271Y-86321448D01*
X100324814Y-86238186D01*
X100241552Y-86136729D01*
X100212222Y-86100991D01*
X100128557Y-85944466D01*
X100077037Y-85774627D01*
X100059641Y-85598000D01*
X100077037Y-85421373D01*
X100128557Y-85251534D01*
X100212222Y-85095009D01*
X100241552Y-85059271D01*
X100324814Y-84957814D01*
X100426271Y-84874552D01*
X100462009Y-84845222D01*
X100618534Y-84761557D01*
X100788373Y-84710037D01*
X100854557Y-84703519D01*
X100920740Y-84697000D01*
X101009260Y-84697000D01*
X101075443Y-84703519D01*
X101075443Y-84703519D01*
G37*
G36*
X98535443Y-84703519D02*
G01*
X98601627Y-84710037D01*
X98771466Y-84761557D01*
X98927991Y-84845222D01*
X98963729Y-84874552D01*
X99065186Y-84957814D01*
X99148448Y-85059271D01*
X99177778Y-85095009D01*
X99261443Y-85251534D01*
X99312963Y-85421373D01*
X99330359Y-85598000D01*
X99312963Y-85774627D01*
X99261443Y-85944466D01*
X99177778Y-86100991D01*
X99148448Y-86136729D01*
X99065186Y-86238186D01*
X98963729Y-86321448D01*
X98927991Y-86350778D01*
X98771466Y-86434443D01*
X98601627Y-86485963D01*
X98535442Y-86492482D01*
X98469260Y-86499000D01*
X98380740Y-86499000D01*
X98314558Y-86492482D01*
X98248373Y-86485963D01*
X98078534Y-86434443D01*
X97922009Y-86350778D01*
X97886271Y-86321448D01*
X97784814Y-86238186D01*
X97701552Y-86136729D01*
X97672222Y-86100991D01*
X97588557Y-85944466D01*
X97537037Y-85774627D01*
X97519641Y-85598000D01*
X97537037Y-85421373D01*
X97588557Y-85251534D01*
X97672222Y-85095009D01*
X97701552Y-85059271D01*
X97784814Y-84957814D01*
X97886271Y-84874552D01*
X97922009Y-84845222D01*
X98078534Y-84761557D01*
X98248373Y-84710037D01*
X98314557Y-84703519D01*
X98380740Y-84697000D01*
X98469260Y-84697000D01*
X98535443Y-84703519D01*
X98535443Y-84703519D01*
G37*
G36*
X95995443Y-84703519D02*
G01*
X96061627Y-84710037D01*
X96231466Y-84761557D01*
X96387991Y-84845222D01*
X96423729Y-84874552D01*
X96525186Y-84957814D01*
X96608448Y-85059271D01*
X96637778Y-85095009D01*
X96721443Y-85251534D01*
X96772963Y-85421373D01*
X96790359Y-85598000D01*
X96772963Y-85774627D01*
X96721443Y-85944466D01*
X96637778Y-86100991D01*
X96608448Y-86136729D01*
X96525186Y-86238186D01*
X96423729Y-86321448D01*
X96387991Y-86350778D01*
X96231466Y-86434443D01*
X96061627Y-86485963D01*
X95995442Y-86492482D01*
X95929260Y-86499000D01*
X95840740Y-86499000D01*
X95774558Y-86492482D01*
X95708373Y-86485963D01*
X95538534Y-86434443D01*
X95382009Y-86350778D01*
X95346271Y-86321448D01*
X95244814Y-86238186D01*
X95161552Y-86136729D01*
X95132222Y-86100991D01*
X95048557Y-85944466D01*
X94997037Y-85774627D01*
X94979641Y-85598000D01*
X94997037Y-85421373D01*
X95048557Y-85251534D01*
X95132222Y-85095009D01*
X95161552Y-85059271D01*
X95244814Y-84957814D01*
X95346271Y-84874552D01*
X95382009Y-84845222D01*
X95538534Y-84761557D01*
X95708373Y-84710037D01*
X95774557Y-84703519D01*
X95840740Y-84697000D01*
X95929260Y-84697000D01*
X95995443Y-84703519D01*
X95995443Y-84703519D01*
G37*
M02*
