G04 #@! TF.GenerationSoftware,KiCad,Pcbnew,(5.1.2)-1*
G04 #@! TF.CreationDate,2019-05-20T21:13:43-04:00*
G04 #@! TF.ProjectId,DuinoClone,4475696e-6f43-46c6-9f6e-652e6b696361,1*
G04 #@! TF.SameCoordinates,Original*
G04 #@! TF.FileFunction,Copper,L1,Top*
G04 #@! TF.FilePolarity,Positive*
%FSLAX46Y46*%
G04 Gerber Fmt 4.6, Leading zero omitted, Abs format (unit mm)*
G04 Created by KiCad (PCBNEW (5.1.2)-1) date 2019-05-20 21:13:43*
%MOMM*%
%LPD*%
G04 APERTURE LIST*
%ADD10R,1.700000X1.700000*%
%ADD11O,1.700000X1.700000*%
%ADD12C,0.100000*%
%ADD13C,1.150000*%
%ADD14R,1.750000X0.550000*%
%ADD15R,1.700000X0.650000*%
%ADD16R,0.550000X1.500000*%
%ADD17R,1.500000X0.550000*%
%ADD18R,1.750000X1.800000*%
%ADD19R,3.500000X2.400000*%
%ADD20C,1.000000*%
%ADD21C,0.800000*%
%ADD22C,0.300000*%
%ADD23C,0.250000*%
G04 APERTURE END LIST*
D10*
X82804000Y-91440000D03*
D11*
X82804000Y-93980000D03*
D12*
G36*
X97749505Y-92900204D02*
G01*
X97773773Y-92903804D01*
X97797572Y-92909765D01*
X97820671Y-92918030D01*
X97842850Y-92928520D01*
X97863893Y-92941132D01*
X97883599Y-92955747D01*
X97901777Y-92972223D01*
X97918253Y-92990401D01*
X97932868Y-93010107D01*
X97945480Y-93031150D01*
X97955970Y-93053329D01*
X97964235Y-93076428D01*
X97970196Y-93100227D01*
X97973796Y-93124495D01*
X97975000Y-93148999D01*
X97975000Y-94049001D01*
X97973796Y-94073505D01*
X97970196Y-94097773D01*
X97964235Y-94121572D01*
X97955970Y-94144671D01*
X97945480Y-94166850D01*
X97932868Y-94187893D01*
X97918253Y-94207599D01*
X97901777Y-94225777D01*
X97883599Y-94242253D01*
X97863893Y-94256868D01*
X97842850Y-94269480D01*
X97820671Y-94279970D01*
X97797572Y-94288235D01*
X97773773Y-94294196D01*
X97749505Y-94297796D01*
X97725001Y-94299000D01*
X97074999Y-94299000D01*
X97050495Y-94297796D01*
X97026227Y-94294196D01*
X97002428Y-94288235D01*
X96979329Y-94279970D01*
X96957150Y-94269480D01*
X96936107Y-94256868D01*
X96916401Y-94242253D01*
X96898223Y-94225777D01*
X96881747Y-94207599D01*
X96867132Y-94187893D01*
X96854520Y-94166850D01*
X96844030Y-94144671D01*
X96835765Y-94121572D01*
X96829804Y-94097773D01*
X96826204Y-94073505D01*
X96825000Y-94049001D01*
X96825000Y-93148999D01*
X96826204Y-93124495D01*
X96829804Y-93100227D01*
X96835765Y-93076428D01*
X96844030Y-93053329D01*
X96854520Y-93031150D01*
X96867132Y-93010107D01*
X96881747Y-92990401D01*
X96898223Y-92972223D01*
X96916401Y-92955747D01*
X96936107Y-92941132D01*
X96957150Y-92928520D01*
X96979329Y-92918030D01*
X97002428Y-92909765D01*
X97026227Y-92903804D01*
X97050495Y-92900204D01*
X97074999Y-92899000D01*
X97725001Y-92899000D01*
X97749505Y-92900204D01*
X97749505Y-92900204D01*
G37*
D13*
X97400000Y-93599000D03*
D12*
G36*
X99799505Y-92900204D02*
G01*
X99823773Y-92903804D01*
X99847572Y-92909765D01*
X99870671Y-92918030D01*
X99892850Y-92928520D01*
X99913893Y-92941132D01*
X99933599Y-92955747D01*
X99951777Y-92972223D01*
X99968253Y-92990401D01*
X99982868Y-93010107D01*
X99995480Y-93031150D01*
X100005970Y-93053329D01*
X100014235Y-93076428D01*
X100020196Y-93100227D01*
X100023796Y-93124495D01*
X100025000Y-93148999D01*
X100025000Y-94049001D01*
X100023796Y-94073505D01*
X100020196Y-94097773D01*
X100014235Y-94121572D01*
X100005970Y-94144671D01*
X99995480Y-94166850D01*
X99982868Y-94187893D01*
X99968253Y-94207599D01*
X99951777Y-94225777D01*
X99933599Y-94242253D01*
X99913893Y-94256868D01*
X99892850Y-94269480D01*
X99870671Y-94279970D01*
X99847572Y-94288235D01*
X99823773Y-94294196D01*
X99799505Y-94297796D01*
X99775001Y-94299000D01*
X99124999Y-94299000D01*
X99100495Y-94297796D01*
X99076227Y-94294196D01*
X99052428Y-94288235D01*
X99029329Y-94279970D01*
X99007150Y-94269480D01*
X98986107Y-94256868D01*
X98966401Y-94242253D01*
X98948223Y-94225777D01*
X98931747Y-94207599D01*
X98917132Y-94187893D01*
X98904520Y-94166850D01*
X98894030Y-94144671D01*
X98885765Y-94121572D01*
X98879804Y-94097773D01*
X98876204Y-94073505D01*
X98875000Y-94049001D01*
X98875000Y-93148999D01*
X98876204Y-93124495D01*
X98879804Y-93100227D01*
X98885765Y-93076428D01*
X98894030Y-93053329D01*
X98904520Y-93031150D01*
X98917132Y-93010107D01*
X98931747Y-92990401D01*
X98948223Y-92972223D01*
X98966401Y-92955747D01*
X98986107Y-92941132D01*
X99007150Y-92928520D01*
X99029329Y-92918030D01*
X99052428Y-92909765D01*
X99076227Y-92903804D01*
X99100495Y-92900204D01*
X99124999Y-92899000D01*
X99775001Y-92899000D01*
X99799505Y-92900204D01*
X99799505Y-92900204D01*
G37*
D13*
X99450000Y-93599000D03*
D12*
G36*
X99799505Y-89598204D02*
G01*
X99823773Y-89601804D01*
X99847572Y-89607765D01*
X99870671Y-89616030D01*
X99892850Y-89626520D01*
X99913893Y-89639132D01*
X99933599Y-89653747D01*
X99951777Y-89670223D01*
X99968253Y-89688401D01*
X99982868Y-89708107D01*
X99995480Y-89729150D01*
X100005970Y-89751329D01*
X100014235Y-89774428D01*
X100020196Y-89798227D01*
X100023796Y-89822495D01*
X100025000Y-89846999D01*
X100025000Y-90747001D01*
X100023796Y-90771505D01*
X100020196Y-90795773D01*
X100014235Y-90819572D01*
X100005970Y-90842671D01*
X99995480Y-90864850D01*
X99982868Y-90885893D01*
X99968253Y-90905599D01*
X99951777Y-90923777D01*
X99933599Y-90940253D01*
X99913893Y-90954868D01*
X99892850Y-90967480D01*
X99870671Y-90977970D01*
X99847572Y-90986235D01*
X99823773Y-90992196D01*
X99799505Y-90995796D01*
X99775001Y-90997000D01*
X99124999Y-90997000D01*
X99100495Y-90995796D01*
X99076227Y-90992196D01*
X99052428Y-90986235D01*
X99029329Y-90977970D01*
X99007150Y-90967480D01*
X98986107Y-90954868D01*
X98966401Y-90940253D01*
X98948223Y-90923777D01*
X98931747Y-90905599D01*
X98917132Y-90885893D01*
X98904520Y-90864850D01*
X98894030Y-90842671D01*
X98885765Y-90819572D01*
X98879804Y-90795773D01*
X98876204Y-90771505D01*
X98875000Y-90747001D01*
X98875000Y-89846999D01*
X98876204Y-89822495D01*
X98879804Y-89798227D01*
X98885765Y-89774428D01*
X98894030Y-89751329D01*
X98904520Y-89729150D01*
X98917132Y-89708107D01*
X98931747Y-89688401D01*
X98948223Y-89670223D01*
X98966401Y-89653747D01*
X98986107Y-89639132D01*
X99007150Y-89626520D01*
X99029329Y-89616030D01*
X99052428Y-89607765D01*
X99076227Y-89601804D01*
X99100495Y-89598204D01*
X99124999Y-89597000D01*
X99775001Y-89597000D01*
X99799505Y-89598204D01*
X99799505Y-89598204D01*
G37*
D13*
X99450000Y-90297000D03*
D12*
G36*
X97749505Y-89598204D02*
G01*
X97773773Y-89601804D01*
X97797572Y-89607765D01*
X97820671Y-89616030D01*
X97842850Y-89626520D01*
X97863893Y-89639132D01*
X97883599Y-89653747D01*
X97901777Y-89670223D01*
X97918253Y-89688401D01*
X97932868Y-89708107D01*
X97945480Y-89729150D01*
X97955970Y-89751329D01*
X97964235Y-89774428D01*
X97970196Y-89798227D01*
X97973796Y-89822495D01*
X97975000Y-89846999D01*
X97975000Y-90747001D01*
X97973796Y-90771505D01*
X97970196Y-90795773D01*
X97964235Y-90819572D01*
X97955970Y-90842671D01*
X97945480Y-90864850D01*
X97932868Y-90885893D01*
X97918253Y-90905599D01*
X97901777Y-90923777D01*
X97883599Y-90940253D01*
X97863893Y-90954868D01*
X97842850Y-90967480D01*
X97820671Y-90977970D01*
X97797572Y-90986235D01*
X97773773Y-90992196D01*
X97749505Y-90995796D01*
X97725001Y-90997000D01*
X97074999Y-90997000D01*
X97050495Y-90995796D01*
X97026227Y-90992196D01*
X97002428Y-90986235D01*
X96979329Y-90977970D01*
X96957150Y-90967480D01*
X96936107Y-90954868D01*
X96916401Y-90940253D01*
X96898223Y-90923777D01*
X96881747Y-90905599D01*
X96867132Y-90885893D01*
X96854520Y-90864850D01*
X96844030Y-90842671D01*
X96835765Y-90819572D01*
X96829804Y-90795773D01*
X96826204Y-90771505D01*
X96825000Y-90747001D01*
X96825000Y-89846999D01*
X96826204Y-89822495D01*
X96829804Y-89798227D01*
X96835765Y-89774428D01*
X96844030Y-89751329D01*
X96854520Y-89729150D01*
X96867132Y-89708107D01*
X96881747Y-89688401D01*
X96898223Y-89670223D01*
X96916401Y-89653747D01*
X96936107Y-89639132D01*
X96957150Y-89626520D01*
X96979329Y-89616030D01*
X97002428Y-89607765D01*
X97026227Y-89601804D01*
X97050495Y-89598204D01*
X97074999Y-89597000D01*
X97725001Y-89597000D01*
X97749505Y-89598204D01*
X97749505Y-89598204D01*
G37*
D13*
X97400000Y-90297000D03*
D12*
G36*
X114726505Y-98484204D02*
G01*
X114750773Y-98487804D01*
X114774572Y-98493765D01*
X114797671Y-98502030D01*
X114819850Y-98512520D01*
X114840893Y-98525132D01*
X114860599Y-98539747D01*
X114878777Y-98556223D01*
X114895253Y-98574401D01*
X114909868Y-98594107D01*
X114922480Y-98615150D01*
X114932970Y-98637329D01*
X114941235Y-98660428D01*
X114947196Y-98684227D01*
X114950796Y-98708495D01*
X114952000Y-98732999D01*
X114952000Y-99633001D01*
X114950796Y-99657505D01*
X114947196Y-99681773D01*
X114941235Y-99705572D01*
X114932970Y-99728671D01*
X114922480Y-99750850D01*
X114909868Y-99771893D01*
X114895253Y-99791599D01*
X114878777Y-99809777D01*
X114860599Y-99826253D01*
X114840893Y-99840868D01*
X114819850Y-99853480D01*
X114797671Y-99863970D01*
X114774572Y-99872235D01*
X114750773Y-99878196D01*
X114726505Y-99881796D01*
X114702001Y-99883000D01*
X114051999Y-99883000D01*
X114027495Y-99881796D01*
X114003227Y-99878196D01*
X113979428Y-99872235D01*
X113956329Y-99863970D01*
X113934150Y-99853480D01*
X113913107Y-99840868D01*
X113893401Y-99826253D01*
X113875223Y-99809777D01*
X113858747Y-99791599D01*
X113844132Y-99771893D01*
X113831520Y-99750850D01*
X113821030Y-99728671D01*
X113812765Y-99705572D01*
X113806804Y-99681773D01*
X113803204Y-99657505D01*
X113802000Y-99633001D01*
X113802000Y-98732999D01*
X113803204Y-98708495D01*
X113806804Y-98684227D01*
X113812765Y-98660428D01*
X113821030Y-98637329D01*
X113831520Y-98615150D01*
X113844132Y-98594107D01*
X113858747Y-98574401D01*
X113875223Y-98556223D01*
X113893401Y-98539747D01*
X113913107Y-98525132D01*
X113934150Y-98512520D01*
X113956329Y-98502030D01*
X113979428Y-98493765D01*
X114003227Y-98487804D01*
X114027495Y-98484204D01*
X114051999Y-98483000D01*
X114702001Y-98483000D01*
X114726505Y-98484204D01*
X114726505Y-98484204D01*
G37*
D13*
X114377000Y-99183000D03*
D12*
G36*
X112676505Y-98484204D02*
G01*
X112700773Y-98487804D01*
X112724572Y-98493765D01*
X112747671Y-98502030D01*
X112769850Y-98512520D01*
X112790893Y-98525132D01*
X112810599Y-98539747D01*
X112828777Y-98556223D01*
X112845253Y-98574401D01*
X112859868Y-98594107D01*
X112872480Y-98615150D01*
X112882970Y-98637329D01*
X112891235Y-98660428D01*
X112897196Y-98684227D01*
X112900796Y-98708495D01*
X112902000Y-98732999D01*
X112902000Y-99633001D01*
X112900796Y-99657505D01*
X112897196Y-99681773D01*
X112891235Y-99705572D01*
X112882970Y-99728671D01*
X112872480Y-99750850D01*
X112859868Y-99771893D01*
X112845253Y-99791599D01*
X112828777Y-99809777D01*
X112810599Y-99826253D01*
X112790893Y-99840868D01*
X112769850Y-99853480D01*
X112747671Y-99863970D01*
X112724572Y-99872235D01*
X112700773Y-99878196D01*
X112676505Y-99881796D01*
X112652001Y-99883000D01*
X112001999Y-99883000D01*
X111977495Y-99881796D01*
X111953227Y-99878196D01*
X111929428Y-99872235D01*
X111906329Y-99863970D01*
X111884150Y-99853480D01*
X111863107Y-99840868D01*
X111843401Y-99826253D01*
X111825223Y-99809777D01*
X111808747Y-99791599D01*
X111794132Y-99771893D01*
X111781520Y-99750850D01*
X111771030Y-99728671D01*
X111762765Y-99705572D01*
X111756804Y-99681773D01*
X111753204Y-99657505D01*
X111752000Y-99633001D01*
X111752000Y-98732999D01*
X111753204Y-98708495D01*
X111756804Y-98684227D01*
X111762765Y-98660428D01*
X111771030Y-98637329D01*
X111781520Y-98615150D01*
X111794132Y-98594107D01*
X111808747Y-98574401D01*
X111825223Y-98556223D01*
X111843401Y-98539747D01*
X111863107Y-98525132D01*
X111884150Y-98512520D01*
X111906329Y-98502030D01*
X111929428Y-98493765D01*
X111953227Y-98487804D01*
X111977495Y-98484204D01*
X112001999Y-98483000D01*
X112652001Y-98483000D01*
X112676505Y-98484204D01*
X112676505Y-98484204D01*
G37*
D13*
X112327000Y-99183000D03*
D12*
G36*
X117053505Y-101790204D02*
G01*
X117077773Y-101793804D01*
X117101572Y-101799765D01*
X117124671Y-101808030D01*
X117146850Y-101818520D01*
X117167893Y-101831132D01*
X117187599Y-101845747D01*
X117205777Y-101862223D01*
X117222253Y-101880401D01*
X117236868Y-101900107D01*
X117249480Y-101921150D01*
X117259970Y-101943329D01*
X117268235Y-101966428D01*
X117274196Y-101990227D01*
X117277796Y-102014495D01*
X117279000Y-102038999D01*
X117279000Y-102939001D01*
X117277796Y-102963505D01*
X117274196Y-102987773D01*
X117268235Y-103011572D01*
X117259970Y-103034671D01*
X117249480Y-103056850D01*
X117236868Y-103077893D01*
X117222253Y-103097599D01*
X117205777Y-103115777D01*
X117187599Y-103132253D01*
X117167893Y-103146868D01*
X117146850Y-103159480D01*
X117124671Y-103169970D01*
X117101572Y-103178235D01*
X117077773Y-103184196D01*
X117053505Y-103187796D01*
X117029001Y-103189000D01*
X116378999Y-103189000D01*
X116354495Y-103187796D01*
X116330227Y-103184196D01*
X116306428Y-103178235D01*
X116283329Y-103169970D01*
X116261150Y-103159480D01*
X116240107Y-103146868D01*
X116220401Y-103132253D01*
X116202223Y-103115777D01*
X116185747Y-103097599D01*
X116171132Y-103077893D01*
X116158520Y-103056850D01*
X116148030Y-103034671D01*
X116139765Y-103011572D01*
X116133804Y-102987773D01*
X116130204Y-102963505D01*
X116129000Y-102939001D01*
X116129000Y-102038999D01*
X116130204Y-102014495D01*
X116133804Y-101990227D01*
X116139765Y-101966428D01*
X116148030Y-101943329D01*
X116158520Y-101921150D01*
X116171132Y-101900107D01*
X116185747Y-101880401D01*
X116202223Y-101862223D01*
X116220401Y-101845747D01*
X116240107Y-101831132D01*
X116261150Y-101818520D01*
X116283329Y-101808030D01*
X116306428Y-101799765D01*
X116330227Y-101793804D01*
X116354495Y-101790204D01*
X116378999Y-101789000D01*
X117029001Y-101789000D01*
X117053505Y-101790204D01*
X117053505Y-101790204D01*
G37*
D13*
X116704000Y-102489000D03*
D12*
G36*
X119103505Y-101790204D02*
G01*
X119127773Y-101793804D01*
X119151572Y-101799765D01*
X119174671Y-101808030D01*
X119196850Y-101818520D01*
X119217893Y-101831132D01*
X119237599Y-101845747D01*
X119255777Y-101862223D01*
X119272253Y-101880401D01*
X119286868Y-101900107D01*
X119299480Y-101921150D01*
X119309970Y-101943329D01*
X119318235Y-101966428D01*
X119324196Y-101990227D01*
X119327796Y-102014495D01*
X119329000Y-102038999D01*
X119329000Y-102939001D01*
X119327796Y-102963505D01*
X119324196Y-102987773D01*
X119318235Y-103011572D01*
X119309970Y-103034671D01*
X119299480Y-103056850D01*
X119286868Y-103077893D01*
X119272253Y-103097599D01*
X119255777Y-103115777D01*
X119237599Y-103132253D01*
X119217893Y-103146868D01*
X119196850Y-103159480D01*
X119174671Y-103169970D01*
X119151572Y-103178235D01*
X119127773Y-103184196D01*
X119103505Y-103187796D01*
X119079001Y-103189000D01*
X118428999Y-103189000D01*
X118404495Y-103187796D01*
X118380227Y-103184196D01*
X118356428Y-103178235D01*
X118333329Y-103169970D01*
X118311150Y-103159480D01*
X118290107Y-103146868D01*
X118270401Y-103132253D01*
X118252223Y-103115777D01*
X118235747Y-103097599D01*
X118221132Y-103077893D01*
X118208520Y-103056850D01*
X118198030Y-103034671D01*
X118189765Y-103011572D01*
X118183804Y-102987773D01*
X118180204Y-102963505D01*
X118179000Y-102939001D01*
X118179000Y-102038999D01*
X118180204Y-102014495D01*
X118183804Y-101990227D01*
X118189765Y-101966428D01*
X118198030Y-101943329D01*
X118208520Y-101921150D01*
X118221132Y-101900107D01*
X118235747Y-101880401D01*
X118252223Y-101862223D01*
X118270401Y-101845747D01*
X118290107Y-101831132D01*
X118311150Y-101818520D01*
X118333329Y-101808030D01*
X118356428Y-101799765D01*
X118380227Y-101793804D01*
X118404495Y-101790204D01*
X118428999Y-101789000D01*
X119079001Y-101789000D01*
X119103505Y-101790204D01*
X119103505Y-101790204D01*
G37*
D13*
X118754000Y-102489000D03*
D10*
X91694000Y-108839000D03*
D11*
X94234000Y-108839000D03*
X96774000Y-108839000D03*
X99314000Y-108839000D03*
X101854000Y-108839000D03*
X104394000Y-108839000D03*
X106934000Y-108839000D03*
X109474000Y-108839000D03*
X112014000Y-108839000D03*
D10*
X93345000Y-85598000D03*
D11*
X95885000Y-85598000D03*
X98425000Y-85598000D03*
X100965000Y-85598000D03*
D10*
X82804000Y-98044000D03*
D11*
X85344000Y-98044000D03*
X82804000Y-100584000D03*
X85344000Y-100584000D03*
X82804000Y-103124000D03*
X85344000Y-103124000D03*
X114935000Y-85598000D03*
X112395000Y-85598000D03*
X109855000Y-85598000D03*
D10*
X107315000Y-85598000D03*
D12*
G36*
X114726505Y-101835204D02*
G01*
X114750773Y-101838804D01*
X114774572Y-101844765D01*
X114797671Y-101853030D01*
X114819850Y-101863520D01*
X114840893Y-101876132D01*
X114860599Y-101890747D01*
X114878777Y-101907223D01*
X114895253Y-101925401D01*
X114909868Y-101945107D01*
X114922480Y-101966150D01*
X114932970Y-101988329D01*
X114941235Y-102011428D01*
X114947196Y-102035227D01*
X114950796Y-102059495D01*
X114952000Y-102083999D01*
X114952000Y-102984001D01*
X114950796Y-103008505D01*
X114947196Y-103032773D01*
X114941235Y-103056572D01*
X114932970Y-103079671D01*
X114922480Y-103101850D01*
X114909868Y-103122893D01*
X114895253Y-103142599D01*
X114878777Y-103160777D01*
X114860599Y-103177253D01*
X114840893Y-103191868D01*
X114819850Y-103204480D01*
X114797671Y-103214970D01*
X114774572Y-103223235D01*
X114750773Y-103229196D01*
X114726505Y-103232796D01*
X114702001Y-103234000D01*
X114051999Y-103234000D01*
X114027495Y-103232796D01*
X114003227Y-103229196D01*
X113979428Y-103223235D01*
X113956329Y-103214970D01*
X113934150Y-103204480D01*
X113913107Y-103191868D01*
X113893401Y-103177253D01*
X113875223Y-103160777D01*
X113858747Y-103142599D01*
X113844132Y-103122893D01*
X113831520Y-103101850D01*
X113821030Y-103079671D01*
X113812765Y-103056572D01*
X113806804Y-103032773D01*
X113803204Y-103008505D01*
X113802000Y-102984001D01*
X113802000Y-102083999D01*
X113803204Y-102059495D01*
X113806804Y-102035227D01*
X113812765Y-102011428D01*
X113821030Y-101988329D01*
X113831520Y-101966150D01*
X113844132Y-101945107D01*
X113858747Y-101925401D01*
X113875223Y-101907223D01*
X113893401Y-101890747D01*
X113913107Y-101876132D01*
X113934150Y-101863520D01*
X113956329Y-101853030D01*
X113979428Y-101844765D01*
X114003227Y-101838804D01*
X114027495Y-101835204D01*
X114051999Y-101834000D01*
X114702001Y-101834000D01*
X114726505Y-101835204D01*
X114726505Y-101835204D01*
G37*
D13*
X114377000Y-102534000D03*
D12*
G36*
X112676505Y-101835204D02*
G01*
X112700773Y-101838804D01*
X112724572Y-101844765D01*
X112747671Y-101853030D01*
X112769850Y-101863520D01*
X112790893Y-101876132D01*
X112810599Y-101890747D01*
X112828777Y-101907223D01*
X112845253Y-101925401D01*
X112859868Y-101945107D01*
X112872480Y-101966150D01*
X112882970Y-101988329D01*
X112891235Y-102011428D01*
X112897196Y-102035227D01*
X112900796Y-102059495D01*
X112902000Y-102083999D01*
X112902000Y-102984001D01*
X112900796Y-103008505D01*
X112897196Y-103032773D01*
X112891235Y-103056572D01*
X112882970Y-103079671D01*
X112872480Y-103101850D01*
X112859868Y-103122893D01*
X112845253Y-103142599D01*
X112828777Y-103160777D01*
X112810599Y-103177253D01*
X112790893Y-103191868D01*
X112769850Y-103204480D01*
X112747671Y-103214970D01*
X112724572Y-103223235D01*
X112700773Y-103229196D01*
X112676505Y-103232796D01*
X112652001Y-103234000D01*
X112001999Y-103234000D01*
X111977495Y-103232796D01*
X111953227Y-103229196D01*
X111929428Y-103223235D01*
X111906329Y-103214970D01*
X111884150Y-103204480D01*
X111863107Y-103191868D01*
X111843401Y-103177253D01*
X111825223Y-103160777D01*
X111808747Y-103142599D01*
X111794132Y-103122893D01*
X111781520Y-103101850D01*
X111771030Y-103079671D01*
X111762765Y-103056572D01*
X111756804Y-103032773D01*
X111753204Y-103008505D01*
X111752000Y-102984001D01*
X111752000Y-102083999D01*
X111753204Y-102059495D01*
X111756804Y-102035227D01*
X111762765Y-102011428D01*
X111771030Y-101988329D01*
X111781520Y-101966150D01*
X111794132Y-101945107D01*
X111808747Y-101925401D01*
X111825223Y-101907223D01*
X111843401Y-101890747D01*
X111863107Y-101876132D01*
X111884150Y-101863520D01*
X111906329Y-101853030D01*
X111929428Y-101844765D01*
X111953227Y-101838804D01*
X111977495Y-101835204D01*
X112001999Y-101834000D01*
X112652001Y-101834000D01*
X112676505Y-101835204D01*
X112676505Y-101835204D01*
G37*
D13*
X112327000Y-102534000D03*
D12*
G36*
X86573505Y-86169204D02*
G01*
X86597773Y-86172804D01*
X86621572Y-86178765D01*
X86644671Y-86187030D01*
X86666850Y-86197520D01*
X86687893Y-86210132D01*
X86707599Y-86224747D01*
X86725777Y-86241223D01*
X86742253Y-86259401D01*
X86756868Y-86279107D01*
X86769480Y-86300150D01*
X86779970Y-86322329D01*
X86788235Y-86345428D01*
X86794196Y-86369227D01*
X86797796Y-86393495D01*
X86799000Y-86417999D01*
X86799000Y-87318001D01*
X86797796Y-87342505D01*
X86794196Y-87366773D01*
X86788235Y-87390572D01*
X86779970Y-87413671D01*
X86769480Y-87435850D01*
X86756868Y-87456893D01*
X86742253Y-87476599D01*
X86725777Y-87494777D01*
X86707599Y-87511253D01*
X86687893Y-87525868D01*
X86666850Y-87538480D01*
X86644671Y-87548970D01*
X86621572Y-87557235D01*
X86597773Y-87563196D01*
X86573505Y-87566796D01*
X86549001Y-87568000D01*
X85898999Y-87568000D01*
X85874495Y-87566796D01*
X85850227Y-87563196D01*
X85826428Y-87557235D01*
X85803329Y-87548970D01*
X85781150Y-87538480D01*
X85760107Y-87525868D01*
X85740401Y-87511253D01*
X85722223Y-87494777D01*
X85705747Y-87476599D01*
X85691132Y-87456893D01*
X85678520Y-87435850D01*
X85668030Y-87413671D01*
X85659765Y-87390572D01*
X85653804Y-87366773D01*
X85650204Y-87342505D01*
X85649000Y-87318001D01*
X85649000Y-86417999D01*
X85650204Y-86393495D01*
X85653804Y-86369227D01*
X85659765Y-86345428D01*
X85668030Y-86322329D01*
X85678520Y-86300150D01*
X85691132Y-86279107D01*
X85705747Y-86259401D01*
X85722223Y-86241223D01*
X85740401Y-86224747D01*
X85760107Y-86210132D01*
X85781150Y-86197520D01*
X85803329Y-86187030D01*
X85826428Y-86178765D01*
X85850227Y-86172804D01*
X85874495Y-86169204D01*
X85898999Y-86168000D01*
X86549001Y-86168000D01*
X86573505Y-86169204D01*
X86573505Y-86169204D01*
G37*
D13*
X86224000Y-86868000D03*
D12*
G36*
X88623505Y-86169204D02*
G01*
X88647773Y-86172804D01*
X88671572Y-86178765D01*
X88694671Y-86187030D01*
X88716850Y-86197520D01*
X88737893Y-86210132D01*
X88757599Y-86224747D01*
X88775777Y-86241223D01*
X88792253Y-86259401D01*
X88806868Y-86279107D01*
X88819480Y-86300150D01*
X88829970Y-86322329D01*
X88838235Y-86345428D01*
X88844196Y-86369227D01*
X88847796Y-86393495D01*
X88849000Y-86417999D01*
X88849000Y-87318001D01*
X88847796Y-87342505D01*
X88844196Y-87366773D01*
X88838235Y-87390572D01*
X88829970Y-87413671D01*
X88819480Y-87435850D01*
X88806868Y-87456893D01*
X88792253Y-87476599D01*
X88775777Y-87494777D01*
X88757599Y-87511253D01*
X88737893Y-87525868D01*
X88716850Y-87538480D01*
X88694671Y-87548970D01*
X88671572Y-87557235D01*
X88647773Y-87563196D01*
X88623505Y-87566796D01*
X88599001Y-87568000D01*
X87948999Y-87568000D01*
X87924495Y-87566796D01*
X87900227Y-87563196D01*
X87876428Y-87557235D01*
X87853329Y-87548970D01*
X87831150Y-87538480D01*
X87810107Y-87525868D01*
X87790401Y-87511253D01*
X87772223Y-87494777D01*
X87755747Y-87476599D01*
X87741132Y-87456893D01*
X87728520Y-87435850D01*
X87718030Y-87413671D01*
X87709765Y-87390572D01*
X87703804Y-87366773D01*
X87700204Y-87342505D01*
X87699000Y-87318001D01*
X87699000Y-86417999D01*
X87700204Y-86393495D01*
X87703804Y-86369227D01*
X87709765Y-86345428D01*
X87718030Y-86322329D01*
X87728520Y-86300150D01*
X87741132Y-86279107D01*
X87755747Y-86259401D01*
X87772223Y-86241223D01*
X87790401Y-86224747D01*
X87810107Y-86210132D01*
X87831150Y-86197520D01*
X87853329Y-86187030D01*
X87876428Y-86178765D01*
X87900227Y-86172804D01*
X87924495Y-86169204D01*
X87948999Y-86168000D01*
X88599001Y-86168000D01*
X88623505Y-86169204D01*
X88623505Y-86169204D01*
G37*
D13*
X88274000Y-86868000D03*
D14*
X112632000Y-90297000D03*
X112632000Y-91567000D03*
X112632000Y-92837000D03*
X112632000Y-94107000D03*
X120032000Y-94107000D03*
X120032000Y-92837000D03*
X120032000Y-91567000D03*
X120032000Y-90297000D03*
D15*
X101887000Y-92202000D03*
X101887000Y-93472000D03*
X101887000Y-94742000D03*
X101887000Y-96012000D03*
X109187000Y-96012000D03*
X109187000Y-94742000D03*
X109187000Y-93472000D03*
X109187000Y-92202000D03*
X109187000Y-99314000D03*
X109187000Y-100584000D03*
X109187000Y-101854000D03*
X109187000Y-103124000D03*
X101887000Y-103124000D03*
X101887000Y-101854000D03*
X101887000Y-100584000D03*
X101887000Y-99314000D03*
D16*
X90672000Y-104276000D03*
D17*
X89272000Y-97276000D03*
X89272000Y-98076000D03*
X89272000Y-98876000D03*
X89272000Y-99676000D03*
X89272000Y-100476000D03*
X89272000Y-101276000D03*
X89272000Y-102076000D03*
X89272000Y-102876000D03*
D16*
X91472000Y-104276000D03*
X92272000Y-104276000D03*
X93072000Y-104276000D03*
X93872000Y-104276000D03*
X94672000Y-104276000D03*
X95472000Y-104276000D03*
X96272000Y-104276000D03*
D17*
X97672000Y-102876000D03*
X97672000Y-102076000D03*
X97672000Y-101276000D03*
X97672000Y-100476000D03*
X97672000Y-99676000D03*
X97672000Y-98876000D03*
X97672000Y-98076000D03*
X97672000Y-97276000D03*
D16*
X96272000Y-95876000D03*
X95472000Y-95876000D03*
X94672000Y-95876000D03*
X93872000Y-95876000D03*
X93072000Y-95876000D03*
X92272000Y-95876000D03*
X91472000Y-95876000D03*
X90672000Y-95876000D03*
D18*
X116866000Y-98933000D03*
X120116000Y-98933000D03*
D19*
X88923000Y-91247000D03*
X94123000Y-91247000D03*
D20*
X103459100Y-94742000D03*
D21*
X94093300Y-102249100D03*
X94077500Y-93880700D03*
X96495100Y-91543800D03*
X95083000Y-102914100D03*
X90900900Y-97288500D03*
X91804700Y-98076000D03*
X92111700Y-94510800D03*
X91018300Y-94520700D03*
X91943100Y-101517900D03*
X97165600Y-105062700D03*
X98310500Y-96081900D03*
X107487500Y-95618200D03*
X107483800Y-102651100D03*
D22*
X89272000Y-101276000D02*
X90372300Y-101276000D01*
X90840000Y-100476000D02*
X90372300Y-100943700D01*
X90372300Y-100943700D02*
X90372300Y-101276000D01*
X90372300Y-99676000D02*
X90840000Y-100143700D01*
X90840000Y-100143700D02*
X90840000Y-100476000D01*
X90840000Y-100476000D02*
X96571700Y-100476000D01*
X85344000Y-98044000D02*
X85344000Y-99244300D01*
X89272000Y-101276000D02*
X88171700Y-101276000D01*
X88171700Y-101276000D02*
X86140000Y-99244300D01*
X86140000Y-99244300D02*
X85344000Y-99244300D01*
X96571700Y-100476000D02*
X96571700Y-102076000D01*
X97672000Y-102076000D02*
X96571700Y-102076000D01*
X109187000Y-99314000D02*
X110387300Y-99314000D01*
X114182000Y-99378000D02*
X112870800Y-98066800D01*
X112870800Y-98066800D02*
X111634500Y-98066800D01*
X111634500Y-98066800D02*
X110387300Y-99314000D01*
X114182000Y-99378000D02*
X113352000Y-100208000D01*
X113352000Y-100208000D02*
X113352000Y-106300700D01*
X113352000Y-106300700D02*
X112014000Y-107638700D01*
X114377000Y-99183000D02*
X114182000Y-99378000D01*
X108887000Y-99314000D02*
X109187000Y-99314000D01*
X89272000Y-99676000D02*
X90372300Y-99676000D01*
X108887000Y-99314000D02*
X107986700Y-99314000D01*
X103087300Y-94742000D02*
X103459100Y-94742000D01*
X109953200Y-85974800D02*
X111571300Y-84356700D01*
X111571300Y-84356700D02*
X112863600Y-84356700D01*
X112863600Y-84356700D02*
X113665000Y-85158100D01*
X113665000Y-85158100D02*
X113665000Y-86080700D01*
X113665000Y-86080700D02*
X117881300Y-90297000D01*
X117881300Y-90297000D02*
X120032000Y-90297000D01*
X109855000Y-86073000D02*
X109953200Y-85974800D01*
X109953200Y-85974800D02*
X108025200Y-84046900D01*
X108025200Y-84046900D02*
X98263300Y-84046900D01*
X98263300Y-84046900D02*
X97085300Y-85224900D01*
X97085300Y-85224900D02*
X97085300Y-85598000D01*
X95885000Y-85598000D02*
X97085300Y-85598000D01*
X109855000Y-86073000D02*
X109855000Y-86798300D01*
X109855000Y-85598000D02*
X109855000Y-86073000D01*
X101887000Y-94742000D02*
X103087300Y-94742000D01*
X103087300Y-101854000D02*
X105627300Y-99314000D01*
X105627300Y-99314000D02*
X107986700Y-99314000D01*
X86224000Y-86868000D02*
X88706800Y-84385200D01*
X88706800Y-84385200D02*
X94408600Y-84385200D01*
X94408600Y-84385200D02*
X94684700Y-84661300D01*
X94684700Y-84661300D02*
X94684700Y-85598000D01*
X82804000Y-90239700D02*
X82852300Y-90239700D01*
X82852300Y-90239700D02*
X86224000Y-86868000D01*
X95885000Y-85598000D02*
X94684700Y-85598000D01*
X110387300Y-92202000D02*
X110387300Y-87330600D01*
X110387300Y-87330600D02*
X109855000Y-86798300D01*
X82804000Y-91440000D02*
X82804000Y-90239700D01*
X110387300Y-92202000D02*
X110771700Y-92202000D01*
X110771700Y-92202000D02*
X111406700Y-92837000D01*
X112632000Y-92837000D02*
X111406700Y-92837000D01*
X109187000Y-92202000D02*
X110387300Y-92202000D01*
X97672000Y-100476000D02*
X96571700Y-100476000D01*
X101887000Y-101854000D02*
X103087300Y-101854000D01*
X112014000Y-108839000D02*
X112014000Y-107638700D01*
X101887000Y-103124000D02*
X100686700Y-103124000D01*
X97672000Y-99676000D02*
X98772300Y-99676000D01*
X98772300Y-99676000D02*
X98772300Y-101209600D01*
X98772300Y-101209600D02*
X100686700Y-103124000D01*
X89272000Y-98876000D02*
X91961500Y-98876000D01*
X91961500Y-98876000D02*
X92761500Y-99676000D01*
X92761500Y-99676000D02*
X97672000Y-99676000D01*
X89272000Y-100476000D02*
X88171700Y-100476000D01*
X89272000Y-98876000D02*
X88171700Y-98876000D01*
X88171700Y-98876000D02*
X88171700Y-100476000D01*
X112327000Y-100584000D02*
X112327000Y-99183000D01*
X112327000Y-102534000D02*
X112327000Y-100584000D01*
X112327000Y-100584000D02*
X110387300Y-100584000D01*
X109187000Y-100584000D02*
X110387300Y-100584000D01*
X112504600Y-94107000D02*
X112632000Y-94107000D01*
X112504600Y-94107000D02*
X111406700Y-94107000D01*
X101887000Y-96012000D02*
X100686700Y-96012000D01*
X99450000Y-93599000D02*
X99450000Y-94775300D01*
X99450000Y-94775300D02*
X100686700Y-96012000D01*
X99450000Y-90297000D02*
X99450000Y-93599000D01*
X93345000Y-85598000D02*
X96869100Y-89122100D01*
X96869100Y-89122100D02*
X98275100Y-89122100D01*
X98275100Y-89122100D02*
X99450000Y-90297000D01*
X109474000Y-107638700D02*
X112327000Y-104785700D01*
X112327000Y-104785700D02*
X112327000Y-102534000D01*
X109187000Y-93472000D02*
X107986700Y-93472000D01*
X105117600Y-90297000D02*
X99450000Y-90297000D01*
X107986700Y-93472000D02*
X107986700Y-93166100D01*
X107986700Y-93166100D02*
X105117600Y-90297000D01*
X106114700Y-85598000D02*
X105117600Y-86595100D01*
X105117600Y-86595100D02*
X105117600Y-90297000D01*
X111406700Y-94107000D02*
X110771700Y-93472000D01*
X110771700Y-93472000D02*
X109187000Y-93472000D01*
X107315000Y-85598000D02*
X106114700Y-85598000D01*
X101887000Y-103124000D02*
X104784900Y-103124000D01*
X104784900Y-103124000D02*
X107324900Y-100584000D01*
X107324900Y-100584000D02*
X109187000Y-100584000D01*
X109474000Y-108839000D02*
X109474000Y-107638700D01*
D23*
X94077500Y-93599000D02*
X94077500Y-93880700D01*
X94077500Y-93599000D02*
X93250800Y-92772300D01*
X93250800Y-92772300D02*
X88923000Y-92772300D01*
X97400000Y-93599000D02*
X94077500Y-93599000D01*
X89272000Y-102076000D02*
X90347300Y-102076000D01*
X94093300Y-102249100D02*
X90520400Y-102249100D01*
X90520400Y-102249100D02*
X90347300Y-102076000D01*
X88923000Y-91247000D02*
X88923000Y-92772300D01*
X96495100Y-91543800D02*
X96198300Y-91247000D01*
X89272000Y-102876000D02*
X90347300Y-102876000D01*
X90347300Y-102876000D02*
X90451600Y-102980300D01*
X90451600Y-102980300D02*
X95016800Y-102980300D01*
X95016800Y-102980300D02*
X95083000Y-102914100D01*
X96198300Y-91247000D02*
X96450000Y-91247000D01*
X96450000Y-91247000D02*
X97400000Y-90297000D01*
X94123000Y-91247000D02*
X96198300Y-91247000D01*
X116704000Y-102489000D02*
X114422000Y-102489000D01*
X114422000Y-102489000D02*
X114377000Y-102534000D01*
X108204000Y-109286000D02*
X108978200Y-110060200D01*
X108978200Y-110060200D02*
X112481100Y-110060200D01*
X112481100Y-110060200D02*
X118754000Y-103787300D01*
X118754000Y-103787300D02*
X118754000Y-102489000D01*
X105591300Y-103824400D02*
X108204000Y-106437100D01*
X108204000Y-106437100D02*
X108204000Y-109286000D01*
X108204000Y-109286000D02*
X107412200Y-110077800D01*
X107412200Y-110077800D02*
X90614000Y-110077800D01*
X90614000Y-110077800D02*
X83989800Y-103453600D01*
X83989800Y-103453600D02*
X83989800Y-101769800D01*
X83989800Y-101769800D02*
X82804000Y-100584000D01*
X105591300Y-103824400D02*
X99695700Y-103824400D01*
X99695700Y-103824400D02*
X98747300Y-102876000D01*
X108011700Y-101854000D02*
X107255200Y-101854000D01*
X107255200Y-101854000D02*
X105591300Y-103517900D01*
X105591300Y-103517900D02*
X105591300Y-103824400D01*
X118754000Y-100857900D02*
X116539400Y-100857900D01*
X116539400Y-100857900D02*
X115665600Y-99984100D01*
X115665600Y-99984100D02*
X115665600Y-98864100D01*
X115665600Y-98864100D02*
X111543500Y-94742000D01*
X111543500Y-94742000D02*
X109187000Y-94742000D01*
X121119700Y-92837000D02*
X121316300Y-93033600D01*
X121316300Y-93033600D02*
X121316300Y-100027900D01*
X121316300Y-100027900D02*
X120486300Y-100857900D01*
X120486300Y-100857900D02*
X118754000Y-100857900D01*
X118754000Y-100857900D02*
X118754000Y-102489000D01*
X109187000Y-101854000D02*
X108011700Y-101854000D01*
X120597200Y-92837000D02*
X121119700Y-92837000D01*
X120032000Y-92837000D02*
X120361200Y-92837000D01*
X120361200Y-92837000D02*
X120597200Y-92837000D01*
X121119700Y-92837000D02*
X121232300Y-92724400D01*
X121232300Y-92724400D02*
X121232300Y-89850600D01*
X121232300Y-89850600D02*
X116979700Y-85598000D01*
X116979700Y-85598000D02*
X114935000Y-85598000D01*
X97672000Y-102876000D02*
X98747300Y-102876000D01*
X91694000Y-108839000D02*
X91694000Y-107663700D01*
X90672000Y-95876000D02*
X85807000Y-95876000D01*
X85807000Y-95876000D02*
X84165800Y-97517200D01*
X84165800Y-97517200D02*
X84165800Y-101068500D01*
X84165800Y-101068500D02*
X84951300Y-101854000D01*
X84951300Y-101854000D02*
X85884300Y-101854000D01*
X85884300Y-101854000D02*
X91694000Y-107663700D01*
X89272000Y-97276000D02*
X90347300Y-97276000D01*
X90347300Y-97276000D02*
X90359800Y-97288500D01*
X90359800Y-97288500D02*
X90900900Y-97288500D01*
X89272000Y-98076000D02*
X91804700Y-98076000D01*
X98138700Y-108839000D02*
X98138700Y-108471600D01*
X98138700Y-108471600D02*
X96880500Y-107213400D01*
X96880500Y-107213400D02*
X92534100Y-107213400D01*
X92534100Y-107213400D02*
X90672000Y-105351300D01*
X99314000Y-108839000D02*
X98138700Y-108839000D01*
X90672000Y-104276000D02*
X90672000Y-105351300D01*
X100678700Y-108839000D02*
X100678700Y-108471700D01*
X100678700Y-108471700D02*
X98970100Y-106763100D01*
X98970100Y-106763100D02*
X92883800Y-106763100D01*
X92883800Y-106763100D02*
X91472000Y-105351300D01*
X101854000Y-108839000D02*
X100678700Y-108839000D01*
X91472000Y-104276000D02*
X91472000Y-105351300D01*
X103218700Y-108839000D02*
X103218700Y-108471700D01*
X103218700Y-108471700D02*
X101059800Y-106312800D01*
X101059800Y-106312800D02*
X93233500Y-106312800D01*
X93233500Y-106312800D02*
X92272000Y-105351300D01*
X92272000Y-104276000D02*
X92272000Y-105351300D01*
X104394000Y-108839000D02*
X103218700Y-108839000D01*
X105758700Y-108839000D02*
X105758700Y-108471700D01*
X105758700Y-108471700D02*
X103088700Y-105801700D01*
X103088700Y-105801700D02*
X93522400Y-105801700D01*
X93522400Y-105801700D02*
X93072000Y-105351300D01*
X106934000Y-108839000D02*
X105758700Y-108839000D01*
X93072000Y-104276000D02*
X93072000Y-105351300D01*
X92272000Y-95876000D02*
X92272000Y-94800700D01*
X92272000Y-94800700D02*
X92111700Y-94640400D01*
X92111700Y-94640400D02*
X92111700Y-94510800D01*
X91472000Y-95876000D02*
X91472000Y-94974400D01*
X91472000Y-94974400D02*
X91018300Y-94520700D01*
X96272000Y-103200700D02*
X96272000Y-102976300D01*
X96272000Y-102976300D02*
X94813600Y-101517900D01*
X94813600Y-101517900D02*
X91943100Y-101517900D01*
X96272000Y-104276000D02*
X96272000Y-103200700D01*
X95472000Y-104276000D02*
X95472000Y-105351300D01*
X95472000Y-105351300D02*
X96877000Y-105351300D01*
X96877000Y-105351300D02*
X97165600Y-105062700D01*
X93072000Y-94800700D02*
X93072000Y-94440700D01*
X93072000Y-94440700D02*
X92292200Y-93660900D01*
X92292200Y-93660900D02*
X87833600Y-93660900D01*
X87833600Y-93660900D02*
X86847600Y-92674900D01*
X82804000Y-103124000D02*
X82804000Y-101948700D01*
X82804000Y-101948700D02*
X82436700Y-101948700D01*
X82436700Y-101948700D02*
X81628600Y-101140600D01*
X81628600Y-101140600D02*
X81628600Y-97026600D01*
X81628600Y-97026600D02*
X85980300Y-92674900D01*
X85980300Y-92674900D02*
X86847600Y-92674900D01*
X86847600Y-92674900D02*
X86847600Y-88294400D01*
X86847600Y-88294400D02*
X88274000Y-86868000D01*
X93072000Y-95876000D02*
X93072000Y-94800700D01*
X94672000Y-95876000D02*
X94672000Y-94800700D01*
X94672000Y-94800700D02*
X97029300Y-94800700D01*
X97029300Y-94800700D02*
X98310500Y-96081900D01*
X108011700Y-96012000D02*
X107617900Y-95618200D01*
X107617900Y-95618200D02*
X107487500Y-95618200D01*
X109187000Y-96012000D02*
X108011700Y-96012000D01*
X109187000Y-103124000D02*
X108011700Y-103124000D01*
X107483800Y-102651100D02*
X107538800Y-102651100D01*
X107538800Y-102651100D02*
X108011700Y-103124000D01*
X112395000Y-86773300D02*
X118831700Y-93210000D01*
X118831700Y-93210000D02*
X118831700Y-94107000D01*
X112395000Y-85598000D02*
X112395000Y-86773300D01*
X120032000Y-94107000D02*
X118831700Y-94107000D01*
X112632000Y-90297000D02*
X111431700Y-90297000D01*
X116866000Y-98933000D02*
X116866000Y-95401100D01*
X116866000Y-95401100D02*
X113701500Y-92236600D01*
X113701500Y-92236600D02*
X111666500Y-92236600D01*
X111666500Y-92236600D02*
X111431700Y-92001800D01*
X111431700Y-92001800D02*
X111431700Y-90297000D01*
X120116000Y-98933000D02*
X120116000Y-97707700D01*
X120116000Y-97707700D02*
X113975300Y-91567000D01*
X113975300Y-91567000D02*
X112632000Y-91567000D01*
X101887000Y-99314000D02*
X100711700Y-99314000D01*
X97672000Y-98076000D02*
X99473700Y-98076000D01*
X99473700Y-98076000D02*
X100711700Y-99314000D01*
X103062300Y-99314000D02*
X104755500Y-97620800D01*
X104755500Y-97620800D02*
X104755500Y-93895200D01*
X104755500Y-93895200D02*
X103062300Y-92202000D01*
X101887000Y-92202000D02*
X103062300Y-92202000D01*
X101887000Y-99314000D02*
X103062300Y-99314000D01*
X97672000Y-97276000D02*
X102275600Y-97276000D01*
X102275600Y-97276000D02*
X104284500Y-95267100D01*
X104284500Y-95267100D02*
X104284500Y-94374600D01*
X104284500Y-94374600D02*
X103381900Y-93472000D01*
X103381900Y-93472000D02*
X101887000Y-93472000D01*
X103062300Y-100584000D02*
X105205800Y-98440500D01*
X105205800Y-98440500D02*
X105205800Y-93632000D01*
X105205800Y-93632000D02*
X103124500Y-91550700D01*
X103124500Y-91550700D02*
X100864900Y-91550700D01*
X100864900Y-91550700D02*
X100711700Y-91703900D01*
X100711700Y-91703900D02*
X100711700Y-93472000D01*
X101299400Y-93472000D02*
X101887000Y-93472000D01*
X101299400Y-93472000D02*
X100711700Y-93472000D01*
X101887000Y-100584000D02*
X103062300Y-100584000D01*
M02*
